<?xml version="1.0" encoding="UTF-8"?>
<svg id="_Слой_1" xmlns="http://www.w3.org/2000/svg" version="1.1" viewBox="0 0 800 800">
  <!-- Generator: Adobe Illustrator 29.5.0, SVG Export Plug-In . SVG Version: 2.1.0 Build 137)  -->
  <defs>
    <style>
      .st0 {
        fill: red;
      }

      .st0, .st1, .st2 {
        fill-rule: evenodd;
      }

      .st1 {
        fill: #fff;
      }

      .st2 {
        fill: none;
        stroke: #1d1d1b;
        stroke-miterlimit: 10;
        stroke-width: 10px;
      }
    </style>
  </defs>
  <path class="st0" d="M400,0C179.1,0,0,179.1,0,400s179.1,400,400,400,400-179.1,400-400S620.9,0,400,0Z"/>
  <path class="st2" d="M400,25C192.9,25,25,192.9,25,400s167.9,375,375,375,375-167.9,375-375S607.1,25,400,25Z"/>
  <path class="st1" d="M281.8,445.4c-21.8,0-39.4-17.6-39.4-39.4s17.6-39.4,39.4-39.4h236.4c21.8,0,39.4,17.6,39.4,39.4s-17.6,39.4-39.4,39.4h-236.4,0ZM203,287.8c-21.8,0-39.4-17.6-39.4-39.4s17.6-39.4,39.4-39.4h394c21.8,0,39.4,17.6,39.4,39.4s-17.6,39.4-39.4,39.4H203ZM360.6,603c-21.8,0-39.4-17.6-39.4-39.4s17.6-39.4,39.4-39.4h78.8c21.8,0,39.4,17.6,39.4,39.4s-17.6,39.4-39.4,39.4h-78.8Z"/>
</svg>